<?xml version="1.0"?>
<svg xmlns="http://www.w3.org/2000/svg" id="Capa_1" enable-background="new 0 0 512 512" height="512px" viewBox="0 0 512 512" width="512px" class=""><g><path d="m488.468 260.524h-12.465l-72.678-67.274c-4.613-4.27-10.608-6.491-16.894-6.245-6.281.242-12.092 2.917-16.361 7.529l-8.304 8.971-12.201-34.195c-.668-1.873-2.054-3.405-3.851-4.257-1.798-.852-3.86-.955-5.733-.287l-27.729 9.894v-2.83c0-4.142-3.358-7.5-7.5-7.5h-233.123c-12.976 0-23.532 10.557-23.532 23.532v72.661h-24.565c-12.975.001-23.532 10.558-23.532 23.533s10.557 23.532 23.532 23.532h2.938l8.1 20.249c4.819 12.047 16.317 19.832 29.292 19.832h384.275c12.975 0 24.473-7.784 29.292-19.832l8.1-20.249h2.938c12.976 0 23.532-10.556 23.532-23.532s-10.556-23.532-23.531-23.532zm-107.391-55.801c1.548-1.673 3.655-2.642 5.932-2.73 2.278-.086 4.453.716 6.125 2.264l60.786 56.267h-36.922l-47.163-43.657zm13.841 55.801h-12.843c-.054-.206-.112-.411-.185-.615l-6.097-17.088zm-56.961-79.109 28.226 79.109h-26.629l-25.22-70.681zm-14.329 79.109h-11.378v-31.887zm-260.531-72.661c0-4.705 3.828-8.532 8.532-8.532h225.621v81.194h-234.153zm425.371 104.726h-392.792c-4.142 0-7.5 3.358-7.5 7.5s3.358 7.5 7.5 7.5h373.698l-5.871 14.678c-2.528 6.32-8.559 10.403-15.365 10.403h-384.276c-6.806 0-12.837-4.083-15.365-10.403l-5.871-14.678h20.987c4.142 0 7.5-3.358 7.5-7.5s-3.358-7.5-7.5-7.5h-40.081c-4.705 0-8.532-3.828-8.532-8.532s3.828-8.532 8.532-8.532h464.936c4.705 0 8.532 3.828 8.532 8.532s-3.828 8.532-8.532 8.532z" data-original="#000000" class="active-path" data-old_color="#000000" fill="#FFFFFF"/></g> </svg>
