<?xml version="1.0"?>
<svg xmlns="http://www.w3.org/2000/svg" xmlns:xlink="http://www.w3.org/1999/xlink" version="1.1" id="Layer_1" x="0px" y="0px" viewBox="0 0 512.001 512.001" style="enable-background:new 0 0 512.001 512.001;" xml:space="preserve" width="512px" height="512px"><g><g>
	<g>
		<g>
			<path style="fill:#AB7C94;" d="M256,46.926c-115.284,0-209.075,93.79-209.075,209.075S140.716,465.076,256,465.076s209.074-93.79,209.074-209.075     S371.284,46.926,256,46.926z M309.728,70.576c16.025,4.651,31.195,11.328,45.217,19.732l-19.699,19.699l-32.474-32.475     L309.728,70.576z M323.907,121.347l-35.181,35.181l-32.474-32.474l35.18-35.181L323.907,121.347z M165.921,214.384l35.18-35.181     l32.474,32.475l-35.181,35.181L165.921,214.384z M187.057,258.198l-32.475,32.475l-32.474-32.474l32.475-32.475L187.057,258.198z      M212.44,167.867l32.474-32.475l32.475,32.473l-32.475,32.475L212.44,167.867z M185.727,76.203l1.33,1.33l-32.475,32.475     l-10.91-10.911C156.596,89.82,170.704,82.095,185.727,76.203z M130.957,109.06l12.287,12.287l-35.18,35.181l-10.573-10.573     C107.027,132.263,118.286,119.859,130.957,109.06z M88.674,159.815l8.051,8.051L74.58,190.014     C78.418,179.492,83.146,169.396,88.674,159.815z M62.959,256.001c0-11.896,1.089-23.541,3.159-34.848L221.148,66.12     c11.308-2.07,22.955-3.16,34.852-3.16c12.091,0,23.922,1.129,35.402,3.266L66.225,291.404     C64.088,279.923,62.959,268.092,62.959,256.001z M110.769,269.537l32.474,32.474l-35.179,35.179l-32.474-32.474L110.769,269.537z      M90.309,354.947c-4.923-8.213-9.249-16.821-12.927-25.762l19.344,19.346L90.309,354.947z M146.254,414.716l8.33-8.33     l28.232,28.232C169.864,429.292,157.619,422.6,146.254,414.716z M165.922,395.048l35.179-35.179l32.475,32.475l-35.179,35.179     L165.922,395.048z M367.721,258.199l-32.474,32.474l-32.475-32.475l32.474-32.474L367.721,258.199z M346.585,214.384     l35.181-35.181l32.475,32.475L379.06,246.86L346.585,214.384z M323.908,302.011l-35.18,35.18l-32.475-32.475l35.18-35.18     L323.908,302.011z M277.389,348.53l-32.475,32.475l-32.475-32.475l32.475-32.476L277.389,348.53z M306.29,442.384l-3.52-3.52     l32.476-32.476l16.938,16.939C337.931,431.552,322.529,437.997,306.29,442.384z M366.045,414.509l-19.461-19.461l35.181-35.181     l21.176,21.176C392.142,393.714,379.738,404.974,366.045,414.509z M412.901,368.328l-19.799-19.799l32.475-32.475l10.219,10.219     C429.904,341.297,422.18,355.406,412.901,368.328z M441.539,309.339l-4.624-4.623l7.731-7.731     C443.741,301.154,442.71,305.276,441.539,309.339z M449.04,256.001c0,4.862-0.185,9.681-0.54,14.454L270.455,448.501     c-4.773,0.355-9.593,0.54-14.455,0.54c-17.248,0-33.971-2.286-49.892-6.55l236.382-236.383     C446.752,222.031,449.04,238.753,449.04,256.001z M437.008,188.912l-11.43,11.43l-32.474-32.476l21.611-21.612     C423.825,159.389,431.351,173.698,437.008,188.912z M133.339,404.954c-12.838-10.591-24.282-22.811-34.027-36.333L368.619,99.313     c13.522,9.747,25.742,21.189,36.333,34.027L133.339,404.954z" data-original="#000000" class="active-path" data-old_color="#000000" fill="#FFFFFF"/>
			<path style="fill:#AB7C94;" d="M507.525,239.656c8.105-14.458,4.916-34.593-7.26-45.838c-7.331-6.772-12.05-21.3-10.097-31.089     c3.238-16.25-6.016-34.411-21.069-41.346c-9.068-4.177-18.048-16.537-19.216-26.45c-1.941-16.459-16.357-30.875-32.817-32.816     c-9.911-1.168-22.27-10.147-26.446-19.215c-6.931-15.055-25.094-24.313-41.35-21.067c-9.786,1.951-24.313-2.768-31.085-10.102     c-11.246-12.172-31.382-15.363-45.84-7.257c-8.708,4.881-23.983,4.882-32.689,0c-0.001,0-0.001,0-0.001-0.001     c-14.461-8.104-34.594-4.916-45.837,7.259c-6.774,7.332-21.303,12.056-31.088,10.101c-16.253-3.241-34.412,6.013-41.348,21.067     c-4.175,9.068-16.532,18.047-26.444,19.215c-16.463,1.941-30.879,16.357-32.82,32.815c-1.172,9.913-10.152,22.274-19.217,26.451     c-15.055,6.934-24.306,25.096-21.064,41.346c1.951,9.789-2.77,24.317-10.102,31.089c-12.172,11.243-15.362,31.376-7.26,45.839     c4.882,8.706,4.882,23.982-0.001,32.691c-8.1,14.458-4.911,34.592,7.261,45.835c7.332,6.775,12.053,21.302,10.102,31.087     c-3.242,16.252,6.011,34.414,21.064,41.35c9.066,4.175,18.047,16.536,19.217,26.448c1.94,16.462,16.357,30.877,32.82,32.818     c9.912,1.168,22.269,10.147,26.445,19.217c6.935,15.052,25.093,24.312,41.345,21.065c9.791-1.949,24.318,2.771,31.089,10.1     c7.05,7.632,17.594,11.734,28.043,11.733c6.216,0,12.402-1.451,17.796-4.473c8.706-4.88,23.983-4.881,32.69,0.001     c14.455,8.098,34.593,4.913,45.84-7.26c6.768-7.33,21.294-12.052,31.082-10.1c16.26,3.243,34.416-6.013,41.35-21.065     c4.178-9.069,16.537-18.049,26.45-19.217c16.459-1.941,30.874-16.357,32.815-32.818c1.169-9.911,10.147-22.271,19.216-26.448     c15.053-6.933,24.307-25.095,21.069-41.349c-1.952-9.786,2.766-24.313,10.097-31.087c12.176-11.246,15.365-31.38,7.26-45.839     C502.644,263.638,502.644,248.363,507.525,239.656z M489.385,306.406c-11.419,10.551-17.982,30.758-14.943,45.999     c1.761,8.83-3.872,19.882-12.051,23.649c-14.123,6.507-26.612,23.696-28.431,39.134c-1.055,8.946-9.827,17.718-18.769,18.774     c-15.438,1.818-32.628,14.307-39.136,28.433c-3.766,8.178-14.816,13.813-23.652,12.048c-15.242-3.037-35.449,3.53-45.994,14.945     c-6.112,6.615-18.366,8.556-26.222,4.154c-13.563-7.604-34.809-7.602-48.369-0.001c-7.856,4.404-20.111,2.464-26.221-4.153     c-8.809-9.535-24.354-15.686-38.121-15.686c-2.717,0-5.366,0.241-7.879,0.74c-8.832,1.764-19.879-3.87-23.648-12.048     c-6.504-14.125-23.693-26.614-39.132-28.433c-8.946-1.055-17.719-9.827-18.774-18.775c-1.824-15.44-14.314-32.628-28.434-39.133     c-8.18-3.767-13.81-14.818-12.048-23.649c3.038-15.244-3.527-35.45-14.948-46c-6.615-6.109-8.555-18.362-4.154-26.218     c7.604-13.564,7.604-34.811,0.001-48.368c-4.402-7.86-2.462-20.113,4.152-26.221c11.423-10.547,17.988-30.753,14.949-46.004     c-1.762-8.829,3.867-19.88,12.048-23.647c14.121-6.504,26.61-23.693,28.434-39.135c1.054-8.944,9.827-17.715,18.774-18.772     c15.44-1.819,32.628-14.309,39.13-28.43c3.768-8.178,14.82-13.818,23.65-12.049c15.24,3.038,35.45-3.525,46-14.948     c6.109-6.612,18.359-8.553,26.218-4.151c13.563,7.602,34.809,7.601,48.37,0.001c7.861-4.405,20.112-2.464,26.222,4.15     c10.546,11.422,30.754,17.988,45.997,14.948c8.835-1.766,19.884,3.867,23.65,12.048c6.507,14.125,23.696,26.613,39.134,28.431     c8.944,1.055,17.715,9.827,18.77,18.772c1.819,15.439,14.309,32.628,28.432,39.134c8.179,3.768,13.812,14.82,12.051,23.649     c-3.041,15.247,3.523,35.453,14.944,46.003c6.617,6.11,8.557,18.362,4.153,26.218c-7.602,13.562-7.602,34.809,0.002,48.372     C497.942,288.042,496.002,300.294,489.385,306.406z" data-original="#000000" class="active-path" data-old_color="#000000" fill="#FFFFFF"/>
		</g>
	</g>
</g></g> </svg>
